<?xml version="1.0" encoding="UTF-8" standalone="no"?>
<!-- Created with Inkscape (http://www.inkscape.org/) -->

<svg
   xmlns:dc="http://purl.org/dc/elements/1.1/"
   xmlns:cc="http://creativecommons.org/ns#"
   xmlns:rdf="http://www.w3.org/1999/02/22-rdf-syntax-ns#"
   xmlns:svg="http://www.w3.org/2000/svg"
   xmlns="http://www.w3.org/2000/svg"
   xmlns:sodipodi="http://sodipodi.sourceforge.net/DTD/sodipodi-0.dtd"
   xmlns:inkscape="http://www.inkscape.org/namespaces/inkscape"
   width="429.27994"
   height="510.47992"
   id="svg3190"
   version="1.1"
   inkscape:version="0.48.0 r9654"
   sodipodi:docname="Finite_Differences.svg">
  <defs
     id="defs3192" />
  <sodipodi:namedview
     id="base"
     pagecolor="#ffffff"
     bordercolor="#666666"
     borderopacity="1.0"
     inkscape:pageopacity="0.0"
     inkscape:pageshadow="2"
     inkscape:zoom="1.1753645"
     inkscape:cx="214.63997"
     inkscape:cy="255.23996"
     inkscape:document-units="px"
     inkscape:current-layer="layer1"
     showgrid="false"
     fit-margin-top="0"
     fit-margin-left="0"
     fit-margin-right="0"
     fit-margin-bottom="0"
     inkscape:window-width="1440"
     inkscape:window-height="823"
     inkscape:window-x="0"
     inkscape:window-y="24"
     inkscape:window-maximized="1" />
  <metadata
     id="metadata3195">
    <rdf:RDF>
      <cc:Work
         rdf:about="">
        <dc:format>image/svg+xml</dc:format>
        <dc:type
           rdf:resource="http://purl.org/dc/dcmitype/StillImage" />
        <dc:title />
      </cc:Work>
    </rdf:RDF>
  </metadata>
  <g
     inkscape:label="Capa 1"
     inkscape:groupmode="layer"
     id="layer1"
     transform="translate(-135.36002,-292.20956)">
    <g
       id="g2520"
       transform="matrix(2.4008508,0,0,2.4008508,-149.51593,-192.73632)">
      <path
         style="fill:#000000;fill-opacity:1;fill-rule:evenodd;stroke:none"
         d="m 128.15625,204.46875 1,193 0.0312,0.9375 0.90625,0 164.875,0.0937 0,-1.875 -163.9375,-0.0937 -1,-192.0625 -1.875,0 z"
         id="path2202"
         inkscape:connector-curvature="0" />
      <path
         id="path2526"
         style="font-size:12px;fill-rule:evenodd;stroke-width:0.625;stroke-linejoin:round"
         d="m 124.61922,214.30404 4.45619,-12.31486 4.58356,12.26802 c -2.67871,-1.94983 -6.32966,-1.9196 -9.03975,0.0468 z"
         inkscape:connector-curvature="0" />
      <path
         id="path2528"
         style="font-size:12px;fill-rule:evenodd;stroke-width:0.625;stroke-linejoin:round"
         d="m 285.16998,393.00557 12.28953,4.52559 -12.29369,4.51428 c 1.96491,-2.66766 1.95528,-6.31873 0.004,-9.03987 z"
         inkscape:connector-curvature="0" />
    </g>
    <path
       style="fill:#c80000;fill-opacity:1;fill-rule:evenodd;stroke:none"
       d="m 494.28721,398.39813 c -130.18215,2.26161 -268.13825,43.41202 -358.92719,113.74031 l 3.6763,4.72667 c 102.1181,-79.10426 266.46174,-121.2837 409.94527,-111.03934 l 0.45016,-6.00213 c -18.12141,-1.29382 -36.5471,-1.74859 -55.14454,-1.42551 z"
       id="path2206"
       inkscape:connector-curvature="0" />
    <g
       id="g2594"
       transform="matrix(2.4008508,0,0,2.4008508,-149.51593,-192.73632)">
      <path
         style="fill:#000000;fill-opacity:1;fill-rule:evenodd;stroke:none"
         d="m 267.46875,251.53125 1,0 0,-4 -1,0 0,4 z m 0,8 1,0 0,-4 -1,0 0,4 z m 0,8 1,0 0,-4 -1,0 0,4 z m 0,8 1,0 0,-4 -1,0 0,4 z m 0,8 1,0 0,-4 -1,0 0,4 z m 0,8 1,0 0,-4 -1,0 0,4 z m 0,8 1,0 0,-4 -1,0 0,4 z m 0,8 1,0 0,-4 -1,0 0,4 z m 0,8 1,0 0,-4 -1,0 0,4 z m 0,8 1,0 0,-4 -1,0 0,4 z m 0,8 1,0 0,-4 -1,0 0,4 z m 0,8 1,0 0,-4 -1,0 0,4 z m 0,8 1,0 0,-4 -1,0 0,4 z m 0,8 1,0 0,-4 -1,0 0,4 z m 0,8 1,0 0,-4 -1,0 0,4 z m 0,8 1,0 0,-4 -1,0 0,4 z m 0,8 1,0 0,-4 -1,0 0,4 z m 0,8 1,0 0,-4 -1,0 0,4 z m 0,8 1,0 0,-4 -1,0 0,4 z"
         id="path2356"
         inkscape:connector-curvature="0" />
      <path
         id="path2600"
         style="fill-rule:evenodd;stroke:#000000;stroke-width:0.4pt;marker-start:none;marker-end:none"
         d="m 267.9763,249.50602 c -1.104,0 -2,-0.896 -2,-2 0,-1.104 0.896,-2 2,-2 1.104,0 2,0.896 2,2 0,1.104 -0.896,2 -2,2 z"
         inkscape:connector-curvature="0" />
      <path
         id="path2602"
         style="fill-rule:evenodd;stroke:#000000;stroke-width:0.4pt;marker-start:none;marker-end:none"
         d="m 267.9763,399.64753 c -1.104,0 -2,-0.896 -2,-2 0,-1.104 0.896,-2 2,-2 1.104,0 2,0.896 2,2 0,1.104 -0.896,2 -2,2 z"
         inkscape:connector-curvature="0" />
    </g>
    <g
       id="g2604"
       transform="matrix(2.4008508,0,0,2.4008508,-149.51593,-192.73632)">
      <path
         style="fill:#000000;fill-opacity:1;fill-rule:evenodd;stroke:none"
         d="m 247.46875,252.6875 1,0 0,-4 -1,0 0,4 z m 0,8 1,0 0,-4 -1,0 0,4 z m 0,8 1,0 0,-4 -1,0 0,4 z m 0,8 1,0 0,-4 -1,0 0,4 z m 0,8 1,0 0,-4 -1,0 0,4 z m 0,8 1,0 0,-4 -1,0 0,4 z m 0,8 1,0 0,-4 -1,0 0,4 z m 0,8 1,0 0,-4 -1,0 0,4 z m 0,8 1,0 0,-4 -1,0 0,4 z m 0,8 1,0 0,-4 -1,0 0,4 z m 0,8 1,0 0,-4 -1,0 0,4 z m 0,8 1,0 0,-4 -1,0 0,4 z m 0,8 1,0 0,-4 -1,0 0,4 z m 0,8 1,0 0,-4 -1,0 0,4 z m 0,8 1,0 0,-4 -1,0 0,4 z m 0,8 1,0 0,-4 -1,0 0,4 z m 0,8 1,0 0,-4 -1,0 0,4 z m 0,8 1,0 0,-4 -1,0 0,4 z m 0,8 1,0 0,-4 -1,0 0,4 z"
         id="path1977"
         inkscape:connector-curvature="0" />
      <path
         id="path2610"
         style="fill-rule:evenodd;stroke:#000000;stroke-width:0.4pt;marker-start:none;marker-end:none"
         d="m 247.9763,250.63791 c -1.104,0 -2,-0.896 -2,-2 0,-1.104 0.896,-2 2,-2 1.104,0 2,0.896 2,2 0,1.104 -0.896,2 -2,2 z"
         inkscape:connector-curvature="0" />
      <path
         id="path2612"
         style="fill-rule:evenodd;stroke:#000000;stroke-width:0.4pt;marker-start:none;marker-end:none"
         d="m 247.9763,399.50977 c -1.104,0 -2,-0.896 -2,-2 0,-1.104 0.896,-2 2,-2 1.104,0 2,0.896 2,2 0,1.104 -0.896,2 -2,2 z"
         inkscape:connector-curvature="0" />
    </g>
    <g
       id="g2614"
       transform="matrix(2.4008508,0,0,2.4008508,-149.51593,-192.73632)">
      <path
         style="fill:#000000;fill-opacity:1;fill-rule:evenodd;stroke:none"
         d="m 227.46875,255.125 1,0.0312 0,-4 -1,-0.0312 0,4 z m -0.0312,8 1,0.0312 0,-4 -1,-0.0312 0,4 z m -0.0312,8 1,0.0312 0.0312,-4 -1,-0.0312 -0.0312,4 z m -0.0312,8 1,0.0312 0.0312,-4 -1,-0.0312 -0.0312,4 z m 0,8 1,0.0312 0,-4 -1,-0.0312 0,4 z m -0.0312,8 1,0.0312 0,-4 -1,-0.0312 0,4 z m -0.0312,8 1,0.0312 0,-4 -1,-0.0312 0,4 z m -0.0312,8 1,0.0312 0,-4 -1,-0.0312 0,4 z m -0.0312,8 1,0.0312 0.0312,-4 -1,-0.0312 -0.0312,4 z m -0.0312,8 1,0.0312 0.0312,-4 -1,-0.0312 -0.0312,4 z m 0,8 1,0.0312 0,-4 -1,-0.0312 0,4 z m -0.0312,8 1,0.0312 0,-4 -1,-0.0312 0,4 z m -0.0312,8 1,0.0312 0,-4 -1,-0.0312 0,4 z m -0.0312,8 1,0.0312 0.0312,-4 -1,-0.0312 -0.0312,4 z m -0.0312,8 1,0.0312 0.0312,-4 -1,-0.0312 -0.0312,4 z m -0.0312,8 1,0.0312 0.0312,-4 -1,-0.0312 -0.0312,4 z m 0,8 1,0.0312 0,-4 -1,-0.0312 0,4 z m -0.0312,8 1,0.0312 0,-4 -1,-0.0312 0,4 z m -0.0312,6.5625 1,0 0,-2.53125 -1,-0.0312 0,2.5625 z"
         id="path1979"
         inkscape:connector-curvature="0" />
      <path
         id="path2620"
         style="fill-rule:evenodd;stroke:#000000;stroke-width:0.4pt;marker-start:none;marker-end:none"
         d="m 227.96999,253.10009 c -1.104,-0.004 -1.99711,-0.90244 -1.99355,-2.00643 0.004,-1.104 0.90244,-1.99711 2.00643,-1.99355 1.104,0.004 1.9971,0.90244 1.99355,2.00643 -0.004,1.104 -0.90244,1.99711 -2.00643,1.99355 z"
         inkscape:connector-curvature="0" />
      <path
         id="path2622"
         style="fill-rule:evenodd;stroke:#000000;stroke-width:0.4pt;marker-start:none;marker-end:none"
         d="m 227.49796,399.64752 c -1.104,-0.004 -1.99711,-0.90244 -1.99355,-2.00643 0.004,-1.104 0.90244,-1.99711 2.00643,-1.99355 1.104,0.004 1.9971,0.90244 1.99355,2.00643 -0.004,1.104 -0.90244,1.99711 -2.00643,1.99355 z"
         inkscape:connector-curvature="0" />
    </g>
    <g
       id="g2624"
       transform="matrix(2.4008508,0,0,2.4008508,-149.51593,-192.73632)">
      <path
         style="fill:#000000;fill-opacity:1;fill-rule:evenodd;stroke:none"
         d="m 207.46875,259.125 1,0.0312 0,-4 -1,-0.0312 0,4 z m -0.0312,8 1,0.0312 0,-4 -1,-0.0312 0,4 z m -0.0312,8 1,0.0312 0.0312,-4 -1,-0.0312 -0.0312,4 z m -0.0312,8 1,0.0312 0.0312,-4 -1,-0.0312 -0.0312,4 z m -0.0312,8 1,0.0312 0.0312,-4 -1,-0.0312 -0.0312,4 z m 0,8 1,0.0312 0,-4 -1,-0.0312 0,4 z m -0.0312,8 1,0.0312 0,-4 -1,-0.0312 0,4 z m -0.0312,8 1,0.0312 0,-4 -1,-0.0312 0,4 z m -0.0312,8 1,0.0312 0,-4 -1,-0.0312 0,4 z m -0.0312,8 1,0.0312 0.0312,-4 -1,-0.0312 -0.0312,4 z m -0.0312,8 1,0.0312 0.0312,-4 -1,-0.0312 -0.0312,4 z m -0.0312,8 1,0.0312 0.0312,-4 -1,-0.0312 -0.0312,4 z m 0,8 1,0.0312 0,-4 -1,-0.0312 0,4 z m -0.0312,8 1,0.0312 0,-4 -1,-0.0312 0,4 z m -0.0312,8 1,0.0312 0,-4 -1,-0.0312 0,4 z m -0.0312,8 1,0.0312 0.0312,-4 -1,-0.0312 -0.0312,4 z m -0.0312,8 1,0.0312 0.0312,-4 -1,-0.0312 -0.0312,4 z m -0.0312,8 1,0.0312 0.0312,-4 -1,-0.0312 -0.0312,4 z"
         id="path1981"
         inkscape:connector-curvature="0" />
      <path
         id="path2630"
         style="fill-rule:evenodd;stroke:#000000;stroke-width:0.4pt;marker-start:none;marker-end:none"
         d="m 207.96981,257.10009 c -1.104,-0.004 -1.99702,-0.90262 -1.99337,-2.00662 0.004,-1.10399 0.90262,-1.99702 2.00662,-1.99336 1.10399,0.004 1.99702,0.90262 1.99336,2.00662 -0.004,1.10399 -0.90262,1.99702 -2.00661,1.99336 z"
         inkscape:connector-curvature="0" />
      <path
         id="path2632"
         style="fill-rule:evenodd;stroke:#000000;stroke-width:0.4pt;marker-start:none;marker-end:none"
         d="m 207.49778,399.57351 c -1.104,-0.004 -1.99702,-0.90262 -1.99337,-2.00662 0.004,-1.10399 0.90262,-1.99702 2.00662,-1.99336 1.10399,0.004 1.99702,0.90262 1.99336,2.00662 -0.004,1.10399 -0.90262,1.99702 -2.00661,1.99336 z"
         inkscape:connector-curvature="0" />
    </g>
    <g
       id="g2634"
       transform="matrix(2.4008508,0,0,2.4008508,-149.51593,-192.73632)">
      <path
         style="fill:#000000;fill-opacity:1;fill-rule:evenodd;stroke:none"
         d="m 187.03125,264.53125 1,0 0,-4 -1,0 0,4 z m 0,8 1,0 0,-4 -1,0 0,4 z m -0.0312,8 1,0 0,-4 -1,0 0,4 z m 0,8 1,0 0,-4 -1,0 0,4 z m 0,8 1,0 0,-4 -1,0 0,4 z m 0,8 1,0 0,-4 -1,0 0,4 z m 0,8 1,0 0,-4 -1,0 0,4 z m 0,8 1,0 0,-4 -1,0 0,4 z m 0,8 1,0 0,-4 -1,0 0,4 z m 0,8 1,0 0,-4 -1,0 0,4 z m 0,8 1,0 0,-4 -1,0 0,4 z m 0,8 1,0 0,-4 -1,0 0,4 z m 0,8 1,0 0,-4 -1,0 0,4 z m 0,8 1,0 0,-4 -1,0 0,4 z m 0,8 1,0 0,-4 -1,0 0,4 z m 0,8 1,0 0,-4 -1,0 0,4 z m 0,8 1,0 0,-4 -1,0 0,4 z m 0,5.09375 1,0 0,-1.09375 -1,0 0,1.09375 z"
         id="path1983"
         inkscape:connector-curvature="0" />
      <path
         id="path2640"
         style="fill-rule:evenodd;stroke:#000000;stroke-width:0.4pt;marker-start:none;marker-end:none"
         d="m 187.51679,262.5041 c -1.104,-10e-5 -1.99992,-0.89619 -1.99982,-2.00019 1.1e-4,-1.104 0.89619,-1.99991 2.00019,-1.99981 1.104,1e-4 1.99992,0.89619 1.99981,2.00019 -10e-5,1.104 -0.89618,1.99991 -2.00018,1.99981 z"
         inkscape:connector-curvature="0" />
      <path
         id="path2642"
         style="fill-rule:evenodd;stroke:#000000;stroke-width:0.4pt;marker-start:none;marker-end:none"
         d="m 187.50409,399.57352 c -1.104,-10e-5 -1.99992,-0.89619 -1.99982,-2.00019 1.1e-4,-1.104 0.89619,-1.99991 2.00019,-1.99981 1.104,1e-4 1.99992,0.89619 1.99981,2.00019 -1e-4,1.104 -0.89618,1.99991 -2.00018,1.99981 z"
         inkscape:connector-curvature="0" />
    </g>
    <g
       id="g2644"
       transform="matrix(2.4008508,0,0,2.4008508,-149.51593,-192.73632)">
      <path
         style="fill:#000000;fill-opacity:1;fill-rule:evenodd;stroke:none"
         d="m 167.03125,271.71875 1,0 0,-4 -1,0 0,4 z m 0,8 1,0 0,-4 -1,0 0,4 z m -0.0312,8 1,0 0,-4 -1,0 0,4 z m 0,8 1,0 0,-4 -1,0 0,4 z m 0,8 1,0 0,-4 -1,0 0,4 z m 0,8 1,0 0,-4 -1,0 0,4 z m 0,8 1,0 0,-4 -1,0 0,4 z m 0,8 1,0 0,-4 -1,0 0,4 z m 0,8 1,0 0,-4 -1,0 0,4 z m 0,8 1,0 0,-4 -1,0 0,4 z m 0,8 1,0 0,-4 -1,0 0,4 z m 0,8 1,0 0,-4 -1,0 0,4 z m 0,8 1,0 0,-4 -1,0 0,4 z m 0,8 1,0 0,-4 -1,0 0,4 z m 0,8 1,0 0,-4 -1,0 0,4 z m 0,8 1,0 0,-4 -1,0 0,4 z m 0,5.90625 1,0 0,-1.90625 -1,0 0,1.90625 z"
         id="path1985"
         inkscape:connector-curvature="0" />
      <path
         id="path2650"
         style="fill-rule:evenodd;stroke:#000000;stroke-width:0.4pt;marker-start:none;marker-end:none"
         d="m 167.51678,269.67376 c -1.104,-1.1e-4 -1.99991,-0.8962 -1.99981,-2.0002 1.1e-4,-1.104 0.8962,-1.99991 2.0002,-1.9998 1.104,1.1e-4 1.99991,0.8962 1.9998,2.0002 -10e-5,1.104 -0.89619,1.99991 -2.00019,1.9998 z"
         inkscape:connector-curvature="0" />
      <path
         id="path2652"
         style="fill-rule:evenodd;stroke:#000000;stroke-width:0.4pt;marker-start:none;marker-end:none"
         d="m 167.50408,399.58203 c -1.104,-1.1e-4 -1.99991,-0.8962 -1.99981,-2.0002 1.1e-4,-1.104 0.8962,-1.99991 2.0002,-1.9998 1.104,1.1e-4 1.99991,0.8962 1.9998,2.0002 -1e-4,1.104 -0.89619,1.99991 -2.00019,1.9998 z"
         inkscape:connector-curvature="0" />
    </g>
    <g
       id="g2654"
       transform="matrix(2.4008508,0,0,2.4008508,-149.51593,-192.73632)">
      <path
         style="fill:#000000;fill-opacity:1;fill-rule:evenodd;stroke:none"
         d="m 146.9375,281.125 1,0 0,-4 -1,0 0,4 z m 0,8 1,0 0,-4 -1,0 0,4 z m 0,8 1,0 0,-4 -1,0 0,4 z m 0,8 1,0 0,-4 -1,0 0,4 z m 0.0312,8 1,0 0,-4 -1,0 0,4 z m 0,8 1,0 0,-4 -1,0 0,4 z m 0,8 1,0 0,-4 -1,0 0,4 z m 0,8 1,0 0,-4 -1,0 0,4 z m 0,8 1,0 0,-4 -1,0 0,4 z m 0.0312,8 1,0 -0.0312,-4 -1,0 0.0312,4 z m 0,8 1,0 0,-4 -1,0 0,4 z m 0,8 1,0 0,-4 -1,0 0,4 z m 0,8 1,0 0,-4 -1,0 0,4 z m 0,8 1,0 0,-4 -1,0 0,4 z m 0,8 1,0 0,-4 -1,0 0,4 z m 0.0312,4.5625 1,0 0,-0.5625 -1,0 0,0.5625 z"
         id="path1987"
         inkscape:connector-curvature="0" />
      <path
         id="path2660"
         style="fill-rule:evenodd;stroke:#000000;stroke-width:0.4pt;marker-start:none;marker-end:none"
         d="m 147.43167,279.1001 c -1.104,7.9e-4 -2.00064,-0.89456 -2.00144,-1.99856 -7.9e-4,-1.104 0.89456,-2.00065 1.99856,-2.00144 1.104,-7.9e-4 2.00065,0.89456 2.00144,1.99856 7.9e-4,1.104 -0.89456,2.00065 -1.99856,2.00144 z"
         inkscape:connector-curvature="0" />
      <path
         id="path2662"
         style="fill-rule:evenodd;stroke:#000000;stroke-width:0.4pt;marker-start:none;marker-end:none"
         d="m 147.51838,399.63701 c -1.104,7.9e-4 -2.00064,-0.89456 -2.00144,-1.99856 -7.9e-4,-1.104 0.89456,-2.00065 1.99856,-2.00144 1.104,-7.9e-4 2.00065,0.89456 2.00144,1.99856 7.9e-4,1.104 -0.89456,2.00065 -1.99856,2.00144 z"
         inkscape:connector-curvature="0" />
    </g>
    <g
       id="g2580"
       transform="matrix(2.4008508,0,0,2.4008508,-149.51593,-192.73632)">
      <path
         style="fill:#000000;fill-opacity:1;fill-rule:evenodd;stroke:none"
         d="m 149.28125,332.6875 0,1 16.9375,0 0,-1 -16.9375,0 z"
         id="path2988"
         inkscape:connector-curvature="0" />
      <path
         id="path2586"
         style="fill-rule:evenodd;stroke:#000000;stroke-width:0.2pt;marker-start:none"
         d="m 150.48791,333.17643 1,-1 -3.5,1 3.5,1 -1,-1 z"
         inkscape:connector-curvature="0" />
      <path
         id="path2588"
         style="fill-rule:evenodd;stroke:#000000;stroke-width:0.2pt;marker-start:none"
         d="m 165.00797,333.17643 -1,1 3.5,-1 -3.5,-1 1,1 z"
         inkscape:connector-curvature="0" />
    </g>
    <g
       id="g2570"
       transform="matrix(2.4008508,0,0,2.4008508,-149.51593,-192.73632)">
      <path
         style="font-size:10px;font-style:oblique;font-variant:normal;font-weight:normal;font-stretch:normal;text-align:start;line-height:125%;text-anchor:start;fill:#000000;fill-opacity:1;fill-rule:evenodd;stroke:none;font-family:Bitstream Vera Sans"
         d="m 169.625,332.5 0,1 16.9375,0 0,-1 -16.9375,0 z"
         id="path4074"
         inkscape:connector-curvature="0" />
      <path
         id="path2576"
         style="fill-rule:evenodd;stroke:#000000;stroke-width:0.2pt;marker-start:none"
         d="m 170.83124,333.0151 1,-1 -3.5,1 3.5,1 -1,-1 z"
         inkscape:connector-curvature="0" />
      <path
         id="path2578"
         style="fill-rule:evenodd;stroke:#000000;stroke-width:0.2pt;marker-start:none"
         d="m 185.3513,333.0151 -1,1 3.5,-1 -3.5,-1 1,1 z"
         inkscape:connector-curvature="0" />
    </g>
    <g
       id="g2560"
       transform="matrix(2.4008508,0,0,2.4008508,-149.51593,-192.73632)">
      <path
         style="font-size:10px;font-style:oblique;font-variant:normal;font-weight:normal;font-stretch:normal;text-align:start;line-height:125%;text-anchor:start;fill:#000000;fill-opacity:1;fill-rule:evenodd;stroke:none;font-family:Bitstream Vera Sans"
         d="m 190.0625,332.5 0,1 16.90625,0 0,-1 -16.90625,0 z"
         id="path4086"
         inkscape:connector-curvature="0" />
      <path
         id="path2566"
         style="fill-rule:evenodd;stroke:#000000;stroke-width:0.2pt;marker-start:none"
         d="m 191.25624,333.0151 1,-1 -3.5,1 3.5,1 -1,-1 z"
         inkscape:connector-curvature="0" />
      <path
         id="path2568"
         style="fill-rule:evenodd;stroke:#000000;stroke-width:0.2pt;marker-start:none"
         d="m 205.7763,333.0151 -1,1 3.5,-1 -3.5,-1 1,1 z"
         inkscape:connector-curvature="0" />
    </g>
    <g
       id="g2550"
       transform="matrix(2.4008508,0,0,2.4008508,-149.51593,-192.73632)">
      <path
         style="fill:#000000;fill-opacity:1;fill-rule:evenodd;stroke:none"
         d="m 209.28125,332.6875 0,1 16.9375,0 0,-1 -16.9375,0 z"
         id="path4098"
         inkscape:connector-curvature="0" />
      <path
         id="path2556"
         style="fill-rule:evenodd;stroke:#000000;stroke-width:0.2pt;marker-start:none"
         d="m 210.48791,333.17643 1,-1 -3.5,1 3.5,1 -1,-1 z"
         inkscape:connector-curvature="0" />
      <path
         id="path2558"
         style="fill-rule:evenodd;stroke:#000000;stroke-width:0.2pt;marker-start:none"
         d="m 225.00797,333.17643 -1,1 3.5,-1 -3.5,-1 1,1 z"
         inkscape:connector-curvature="0" />
    </g>
    <g
       id="g2540"
       transform="matrix(2.4008508,0,0,2.4008508,-149.51593,-192.73632)">
      <path
         style="fill:#000000;fill-opacity:1;fill-rule:evenodd;stroke:none"
         d="m 229.28125,332.6875 0,1 16.9375,0 0,-1 -16.9375,0 z"
         id="path4110"
         inkscape:connector-curvature="0" />
      <path
         id="path2546"
         style="fill-rule:evenodd;stroke:#000000;stroke-width:0.2pt;marker-start:none"
         d="m 230.48791,333.17643 1,-1 -3.5,1 3.5,1 -1,-1 z"
         inkscape:connector-curvature="0" />
      <path
         id="path2548"
         style="fill-rule:evenodd;stroke:#000000;stroke-width:0.2pt;marker-start:none"
         d="m 245.00797,333.17643 -1,1 3.5,-1 -3.5,-1 1,1 z"
         inkscape:connector-curvature="0" />
    </g>
    <g
       id="g2530"
       transform="matrix(2.4008508,0,0,2.4008508,-149.51593,-192.73632)">
      <path
         style="fill:#000000;fill-opacity:1;fill-rule:evenodd;stroke:none"
         d="m 249.28125,332.6875 0,1 16.9375,0 0,-1 -16.9375,0 z"
         id="path4122"
         inkscape:connector-curvature="0" />
      <path
         id="path2536"
         style="fill-rule:evenodd;stroke:#000000;stroke-width:0.2pt;marker-start:none"
         d="m 250.48791,333.17643 1,-1 -3.5,1 3.5,1 -1,-1 z"
         inkscape:connector-curvature="0" />
      <path
         id="path2538"
         style="fill-rule:evenodd;stroke:#000000;stroke-width:0.2pt;marker-start:none"
         d="m 265.00797,333.17643 -1,1 3.5,-1 -3.5,-1 1,1 z"
         inkscape:connector-curvature="0" />
    </g>
    <g
       style="font-size:20.33732224px;font-style:italic;font-weight:bold;line-height:125%;letter-spacing:0px;word-spacing:0px;fill:#000000;fill-opacity:1;stroke:none;font-family:Times New Roman;-inkscape-font-specification:'Times New Roman, Bold Italic'"
       id="text3137"
       transform="matrix(2.4008508,0,0,2.4008508,-149.51593,-192.73632)">
      <path
         d="m 215.5893,224.15492 3.05854,-0.89373 c 0.24495,0.30454 0.41707,0.59252 0.51638,0.86394 0.17874,0.47005 0.30452,1.11883 0.37735,1.94635 0.13902,1.62858 0.23501,3.36639 0.28798,5.21342 0.70836,-0.93345 1.51934,-2.16812 2.43293,-3.70401 0.27804,-0.46341 0.41707,-0.90034 0.41708,-1.3108 -1e-5,-0.25819 -0.16221,-0.50313 -0.48659,-0.73485 -0.31778,-0.2317 -0.51638,-0.41045 -0.59582,-0.53624 -0.0795,-0.13239 -0.11917,-0.30121 -0.11916,-0.50644 -1e-5,-0.33101 0.11915,-0.61899 0.35749,-0.86394 0.24494,-0.24494 0.53954,-0.36742 0.8838,-0.36743 0.3641,1e-5 0.67856,0.13904 0.94338,0.41708 0.27142,0.27806 0.40713,0.60576 0.40714,0.9831 -10e-6,0.44356 -0.12579,0.95994 -0.37735,1.54913 -0.24496,0.58259 -0.82422,1.58555 -1.73781,3.00889 -1.17178,1.82057 -2.32039,3.39618 -3.44582,4.72684 -0.72161,0.84739 -1.30419,1.45645 -1.74774,1.82718 -0.44356,0.37735 -0.90366,0.67526 -1.38032,0.89373 -0.28467,0.12578 -0.56603,0.18868 -0.84408,0.18868 -0.37735,0 -0.69843,-0.13241 -0.96324,-0.39721 -0.27143,-0.26481 -0.40714,-0.57928 -0.40714,-0.94338 0,-0.36412 0.12247,-0.67196 0.36742,-0.92352 0.23833,-0.25158 0.51969,-0.37736 0.84408,-0.37736 0.40383,0 0.77456,0.21185 1.1122,0.63554 0.22508,0.28467 0.41045,0.42701 0.55609,0.42701 0.15227,0 0.30122,-0.043 0.44687,-0.1291 0.1986,-0.10592 0.47665,-0.35087 0.83415,-0.73484 0.0397,-0.82753 0.0596,-1.45314 0.0596,-1.87683 0,-0.56934 -0.0265,-1.37039 -0.0794,-2.40314 l -0.16882,-3.78346 c -0.0596,-0.69512 -0.20854,-1.19494 -0.44686,-1.49948 -0.18537,-0.22508 -0.42701,-0.33763 -0.72492,-0.33763 -0.11254,0 -0.23833,0.01 -0.37735,0.0298 l 0,-0.38729"
         id="path4316"
         inkscape:connector-curvature="0" />
      <path
         d="m 224.88409,223.48959 10.86379,0 0,1.29095 -10.86379,0 0,-1.29095 m 0,3.24722 10.86379,0 0,1.29094 -10.86379,0 0,-1.29094"
         id="path4318"
         inkscape:connector-curvature="0" />
      <path
         d="m 241.01095,224.70109 -1.16185,4.58782 c -0.54286,2.16481 -1.07248,3.7338 -1.58885,4.70698 -0.51638,0.97317 -1.12213,1.69146 -1.81725,2.15488 -0.6885,0.47003 -1.47962,0.70505 -2.37335,0.70505 -0.56272,0 -0.97648,-0.10924 -1.24129,-0.3277 -0.26481,-0.21185 -0.39721,-0.46342 -0.39722,-0.75471 1e-5,-0.27143 0.10924,-0.50645 0.32771,-0.70505 0.21847,-0.19861 0.50644,-0.29791 0.86393,-0.29791 0.29792,0 0.52631,0.0761 0.6852,0.2284 0.15888,0.15226 0.23833,0.34425 0.23833,0.57596 0,0.21184 -0.0497,0.36742 -0.14896,0.46672 -0.0993,0.10592 -0.14895,0.17544 -0.14895,0.20854 l 0.0496,0.0695 c 0.0397,0.0331 0.0861,0.0496 0.13902,0.0496 0.19861,0 0.36742,-0.0629 0.50645,-0.18867 0.35087,-0.31116 0.61237,-0.68851 0.78449,-1.13206 0.11917,-0.30453 0.34757,-1.10889 0.6852,-2.41307 l 2.02579,-7.93434 -1.38032,0 0.3277,-1.16185 c 0.49651,0.007 0.85732,-0.0563 1.08241,-0.18867 0.22508,-0.1324 0.46341,-0.43031 0.71498,-0.89373 0.72822,-1.3439 1.49617,-2.30714 2.30384,-2.88973 0.80766,-0.58257 1.70801,-0.87385 2.70105,-0.87387 0.63553,2e-5 1.09564,0.12249 1.38031,0.36742 0.29128,0.24497 0.43693,0.56274 0.43694,0.95332 -1e-5,0.34426 -0.096,0.619 -0.28798,0.82421 -0.192,0.19862 -0.43032,0.29793 -0.71498,0.29791 -0.26482,2e-5 -0.48329,-0.0827 -0.65541,-0.24825 -0.17213,-0.1655 -0.25819,-0.3641 -0.25818,-0.59582 -1e-5,-0.1655 0.053,-0.34093 0.15888,-0.52631 0.11254,-0.18536 0.16881,-0.31114 0.16882,-0.37735 -1e-5,-0.0728 -0.0265,-0.1324 -0.0794,-0.17875 -0.0464,-0.0463 -0.10924,-0.0695 -0.18867,-0.0695 -0.3906,1e-5 -0.79113,0.24165 -1.20157,0.72491 -0.67527,0.77458 -1.21813,1.99932 -1.62858,3.67422 l 1.4399,0 -0.34756,1.16185 -1.40018,0"
         id="path4320"
         inkscape:connector-curvature="0" />
      <path
         d="m 251.31864,218.69324 -0.17875,0.54617 c -0.9467,0.67528 -1.73119,1.45977 -2.35349,2.35349 -0.95332,1.37701 -1.73119,3.05524 -2.33363,5.03468 -0.59582,1.97283 -0.89373,3.82649 -0.89373,5.56098 0,1.10558 0.2615,2.29722 0.7845,3.57492 l -0.16882,0.57596 c -1.78084,-2.38328 -2.67126,-4.75994 -2.67126,-7.12998 0,-1.36376 0.29791,-2.71428 0.89373,-4.05157 0.70175,-1.56236 1.74112,-2.9493 3.11813,-4.16081 1.05261,-0.92682 2.32038,-1.69476 3.80332,-2.30384"
         id="path4322"
         inkscape:connector-curvature="0" />
      <path
         d="m 250.19651,223.85701 3.46568,-0.59582 c 0.62892,0.98643 1.07248,2.07214 1.33067,3.25715 0.64877,-0.95992 1.13867,-1.63187 1.46969,-2.01585 0.44355,-0.51637 0.80766,-0.85069 1.09234,-1.00297 0.29128,-0.15887 0.59912,-0.23832 0.92352,-0.23833 0.3641,1e-5 0.64215,0.0993 0.83414,0.29791 0.1986,0.19862 0.2979,0.46674 0.29791,0.80436 -10e-6,0.31778 -0.0993,0.57928 -0.29791,0.7845 -0.19199,0.19861 -0.43363,0.29792 -0.72491,0.29791 -0.21186,10e-6 -0.4568,-0.0364 -0.73484,-0.10924 -0.27144,-0.0794 -0.46012,-0.11915 -0.56603,-0.11916 -0.27806,1e-5 -0.54287,0.0993 -0.79443,0.29791 -0.34426,0.27144 -0.76795,0.85071 -1.27108,1.73781 0.56271,1.98607 1.01288,3.19757 1.35052,3.6345 0.1986,0.25819 0.40052,0.38728 0.60575,0.38728 0.17212,0 0.32108,-0.043 0.44687,-0.12909 0.19198,-0.13902 0.48658,-0.48659 0.8838,-1.04269 l 0.35749,0.20854 c -0.58259,0.94007 -1.15193,1.6021 -1.70802,1.98607 -0.4237,0.29791 -0.84077,0.44686 -1.25122,0.44686 -0.4237,0 -0.77788,-0.0927 -1.06255,-0.27805 -0.27805,-0.19198 -0.52631,-0.49982 -0.74477,-0.92352 -0.21847,-0.43031 -0.47666,-1.1155 -0.77457,-2.05558 -0.77457,0.98642 -1.38363,1.70802 -1.82718,2.16482 -0.43693,0.45017 -0.80105,0.74477 -1.09233,0.8838 -0.2913,0.13902 -0.60245,0.20853 -0.93346,0.20853 -0.34425,0 -0.61568,-0.0993 -0.81428,-0.29791 -0.20523,-0.1986 -0.30784,-0.45679 -0.30784,-0.77456 0,-0.33763 0.10923,-0.61568 0.3277,-0.83415 0.21847,-0.21847 0.49651,-0.3277 0.83415,-0.3277 0.17874,0 0.38066,0.053 0.60575,0.15888 0.33101,0.15889 0.56933,0.23833 0.71498,0.23833 0.19198,0 0.36411,-0.0397 0.51638,-0.11916 0.1986,-0.0993 0.45017,-0.31446 0.7547,-0.64547 0.18537,-0.20523 0.52631,-0.64216 1.02283,-1.31081 -0.63555,-2.35679 -1.13206,-3.7669 -1.48955,-4.23032 -0.22509,-0.2979 -0.50976,-0.44686 -0.85401,-0.44687 -0.17875,1e-5 -0.39722,0.0265 -0.6554,0.0795 l 0.0695,-0.37736"
         id="path4324"
         inkscape:connector-curvature="0" />
      <path
         d="m 257.14774,236.33944 0.17875,-0.54616 c 0.76133,-0.54287 1.4068,-1.13869 1.93641,-1.78746 0.523,-0.64879 1.06255,-1.54583 1.61865,-2.69112 0.5561,-1.15192 1.00958,-2.38328 1.36045,-3.69409 0.45018,-1.70139 0.67526,-3.29355 0.67527,-4.77649 -10e-6,-1.10557 -0.26151,-2.30051 -0.7845,-3.58485 l 0.15889,-0.56603 c 1.78083,2.38329 2.67125,4.75664 2.67126,7.12005 -10e-6,1.37039 -0.29792,2.72423 -0.89373,4.06151 -0.69513,1.55575 -1.73451,2.93938 -3.11813,4.15088 -1.05261,0.92682 -2.32039,1.69808 -3.80332,2.31376"
         id="path4326"
         inkscape:connector-curvature="0" />
    </g>
    <g
       style="font-size:12.31309414px;font-style:italic;font-weight:bold;line-height:125%;letter-spacing:0px;word-spacing:0px;fill:#000000;fill-opacity:1;stroke:none;font-family:Times New Roman;-inkscape-font-specification:'Times New Roman, Bold Italic'"
       id="text3137-1"
       transform="matrix(2.4008508,0,0,2.4008508,-149.51593,-192.73632)">
      <path
         d="m 159.20083,320.54412 -1.56318,5.41704 c 0.5411,-0.79762 0.9339,-1.33672 1.1784,-1.61729 0.36474,-0.40482 0.67738,-0.67738 0.93791,-0.81767 0.26453,-0.14429 0.51705,-0.21644 0.75754,-0.21644 0.20442,0 0.37877,0.0782 0.52307,0.23448 0.1483,0.15231 0.22245,0.35673 0.22245,0.61325 0,0.21644 -0.0481,0.48699 -0.14429,0.81165 l -0.76356,2.56122 c -0.0681,0.22446 -0.10221,0.37477 -0.1022,0.45092 -1e-5,0.0361 0.014,0.0701 0.0421,0.10221 0.0281,0.0281 0.0601,0.0421 0.0962,0.0421 0.0481,0 0.0962,-0.02 0.14429,-0.0601 0.12826,-0.1002 0.26453,-0.26053 0.40883,-0.48098 0.0361,-0.0561 0.0942,-0.14028 0.17436,-0.25251 l 0.23448,0.13227 c -0.34471,0.56916 -0.67138,0.95995 -0.98,1.17239 -0.30863,0.21243 -0.60123,0.31864 -0.87779,0.31864 -0.24851,0 -0.44291,-0.0641 -0.58319,-0.19239 -0.14029,-0.12826 -0.21043,-0.28859 -0.21043,-0.48098 0,-0.17636 0.0481,-0.42687 0.1443,-0.75153 l 0.74552,-2.56122 c 0.0481,-0.17635 0.0721,-0.30462 0.0721,-0.38478 0,-0.0441 -0.018,-0.0822 -0.0541,-0.11424 -0.0321,-0.0361 -0.0701,-0.0541 -0.11423,-0.0541 -0.1443,10e-6 -0.3427,0.12025 -0.59521,0.36074 -0.52107,0.49301 -1.04213,1.26658 -1.56319,2.32073 l -0.53509,1.78564 -1.49104,0 1.97202,-6.79385 c 0.0802,-0.28858 0.12024,-0.495 0.12025,-0.61926 -1e-5,-0.1002 -0.0401,-0.17836 -0.12025,-0.23448 -0.10421,-0.0761 -0.26454,-0.10821 -0.48098,-0.0962 l 0.0421,-0.24049 2.00208,-0.35473 0.36073,0"
         id="path4313"
         inkscape:connector-curvature="0" />
    </g>
    <g
       style="font-size:12.31309414px;font-style:italic;font-weight:bold;line-height:125%;letter-spacing:0px;word-spacing:0px;fill:#000000;fill-opacity:1;stroke:none;font-family:Times New Roman;-inkscape-font-specification:'Times New Roman, Bold Italic'"
       id="text3137-1-8"
       transform="matrix(2.4008508,0,0,2.4008508,-149.51593,-192.73632)">
      <path
         d="m 258.27849,320.54412 -1.56319,5.41704 c 0.5411,-0.79762 0.9339,-1.33672 1.1784,-1.61729 0.36474,-0.40482 0.67738,-0.67738 0.93791,-0.81767 0.26454,-0.14429 0.51705,-0.21644 0.75755,-0.21644 0.20441,0 0.37876,0.0782 0.52306,0.23448 0.1483,0.15231 0.22245,0.35673 0.22246,0.61325 -10e-6,0.21644 -0.0481,0.48699 -0.1443,0.81165 l -0.76355,2.56122 c -0.0682,0.22446 -0.10222,0.37477 -0.10221,0.45092 -10e-6,0.0361 0.014,0.0701 0.0421,0.10221 0.0281,0.0281 0.0601,0.0421 0.0962,0.0421 0.0481,0 0.0962,-0.02 0.14429,-0.0601 0.12826,-0.1002 0.26454,-0.26053 0.40884,-0.48098 0.0361,-0.0561 0.0942,-0.14028 0.17435,-0.25251 l 0.23448,0.13227 c -0.34471,0.56916 -0.67137,0.95995 -0.98,1.17239 -0.30863,0.21243 -0.60123,0.31864 -0.87779,0.31864 -0.24851,0 -0.4429,-0.0641 -0.58319,-0.19239 -0.14028,-0.12826 -0.21043,-0.28859 -0.21042,-0.48098 -1e-5,-0.17636 0.0481,-0.42687 0.14429,-0.75153 l 0.74552,-2.56122 c 0.0481,-0.17635 0.0721,-0.30462 0.0721,-0.38478 -10e-6,-0.0441 -0.018,-0.0822 -0.0541,-0.11424 -0.0321,-0.0361 -0.0702,-0.0541 -0.11424,-0.0541 -0.1443,10e-6 -0.3427,0.12025 -0.59521,0.36074 -0.52107,0.49301 -1.04213,1.26658 -1.56319,2.32073 l -0.53509,1.78564 -1.49103,0 1.97201,-6.79385 c 0.0802,-0.28858 0.12025,-0.495 0.12025,-0.61926 0,-0.1002 -0.0401,-0.17836 -0.12025,-0.23448 -0.10421,-0.0761 -0.26454,-0.10821 -0.48098,-0.0962 l 0.0421,-0.24049 2.00208,-0.35473 0.36074,0"
         id="path4298"
         inkscape:connector-curvature="0" />
    </g>
    <g
       style="font-size:12.31309414px;font-style:italic;font-weight:bold;line-height:125%;letter-spacing:0px;word-spacing:0px;fill:#000000;fill-opacity:1;stroke:none;font-family:Times New Roman;-inkscape-font-specification:'Times New Roman, Bold Italic'"
       id="text3137-1-2"
       transform="matrix(2.4008508,0,0,2.4008508,-149.51593,-192.73632)">
      <path
         d="m 179.01637,320.54412 -1.56319,5.41704 c 0.5411,-0.79762 0.9339,-1.33672 1.17841,-1.61729 0.36473,-0.40482 0.67737,-0.67738 0.93791,-0.81767 0.26453,-0.14429 0.51705,-0.21644 0.75754,-0.21644 0.20441,0 0.37877,0.0782 0.52307,0.23448 0.14829,0.15231 0.22244,0.35673 0.22245,0.61325 -1e-5,0.21644 -0.0481,0.48699 -0.14429,0.81165 l -0.76356,2.56122 c -0.0681,0.22446 -0.10221,0.37477 -0.10221,0.45092 0,0.0361 0.014,0.0701 0.0421,0.10221 0.0281,0.0281 0.0601,0.0421 0.0962,0.0421 0.0481,0 0.0962,-0.02 0.1443,-0.0601 0.12825,-0.1002 0.26453,-0.26053 0.40883,-0.48098 0.0361,-0.0561 0.0942,-0.14028 0.17436,-0.25251 l 0.23447,0.13227 c -0.3447,0.56916 -0.67137,0.95995 -0.97999,1.17239 -0.30864,0.21243 -0.60123,0.31864 -0.87779,0.31864 -0.24851,0 -0.44291,-0.0641 -0.58319,-0.19239 -0.14029,-0.12826 -0.21043,-0.28859 -0.21043,-0.48098 0,-0.17636 0.0481,-0.42687 0.14429,-0.75153 l 0.74552,-2.56122 c 0.0481,-0.17635 0.0721,-0.30462 0.0721,-0.38478 0,-0.0441 -0.018,-0.0822 -0.0541,-0.11424 -0.0321,-0.0361 -0.0701,-0.0541 -0.11423,-0.0541 -0.1443,10e-6 -0.3427,0.12025 -0.59522,0.36074 -0.52106,0.49301 -1.04212,1.26658 -1.56318,2.32073 l -0.53509,1.78564 -1.49104,0 1.97202,-6.79385 c 0.0802,-0.28858 0.12024,-0.495 0.12024,-0.61926 0,-0.1002 -0.0401,-0.17836 -0.12024,-0.23448 -0.10422,-0.0761 -0.26454,-0.10821 -0.48098,-0.0962 l 0.0421,-0.24049 2.00208,-0.35473 0.36074,0"
         id="path4310"
         inkscape:connector-curvature="0" />
    </g>
    <g
       style="font-size:12.31309414px;font-style:italic;font-weight:bold;line-height:125%;letter-spacing:0px;word-spacing:0px;fill:#000000;fill-opacity:1;stroke:none;font-family:Times New Roman;-inkscape-font-specification:'Times New Roman, Bold Italic'"
       id="text3137-1-7"
       transform="matrix(2.4008508,0,0,2.4008508,-149.51593,-192.73632)">
      <path
         d="m 198.83189,320.54412 -1.56318,5.41704 c 0.54109,-0.79762 0.93389,-1.33672 1.1784,-1.61729 0.36474,-0.40482 0.67737,-0.67738 0.93791,-0.81767 0.26453,-0.14429 0.51705,-0.21644 0.75754,-0.21644 0.20441,0 0.37877,0.0782 0.52307,0.23448 0.14829,0.15231 0.22245,0.35673 0.22245,0.61325 0,0.21644 -0.0481,0.48699 -0.14429,0.81165 l -0.76356,2.56122 c -0.0681,0.22446 -0.10221,0.37477 -0.10221,0.45092 0,0.0361 0.014,0.0701 0.0421,0.10221 0.0281,0.0281 0.0601,0.0421 0.0962,0.0421 0.0481,0 0.0962,-0.02 0.1443,-0.0601 0.12825,-0.1002 0.26453,-0.26053 0.40883,-0.48098 0.0361,-0.0561 0.0942,-0.14028 0.17436,-0.25251 l 0.23448,0.13227 c -0.34471,0.56916 -0.67138,0.95995 -0.98,1.17239 -0.30864,0.21243 -0.60123,0.31864 -0.87779,0.31864 -0.24851,0 -0.44291,-0.0641 -0.58319,-0.19239 -0.14029,-0.12826 -0.21043,-0.28859 -0.21043,-0.48098 0,-0.17636 0.0481,-0.42687 0.1443,-0.75153 l 0.74551,-2.56122 c 0.0481,-0.17635 0.0721,-0.30462 0.0721,-0.38478 0,-0.0441 -0.018,-0.0822 -0.0541,-0.11424 -0.0321,-0.0361 -0.0702,-0.0541 -0.11423,-0.0541 -0.1443,10e-6 -0.3427,0.12025 -0.59521,0.36074 -0.52107,0.49301 -1.04213,1.26658 -1.56319,2.32073 l -0.53509,1.78564 -1.49104,0 1.97202,-6.79385 c 0.0802,-0.28858 0.12024,-0.495 0.12024,-0.61926 0,-0.1002 -0.0401,-0.17836 -0.12024,-0.23448 -0.10421,-0.0761 -0.26454,-0.10821 -0.48098,-0.0962 l 0.0421,-0.24049 2.00208,-0.35473 0.36073,0"
         id="path4307"
         inkscape:connector-curvature="0" />
    </g>
    <g
       style="font-size:12.31309414px;font-style:italic;font-weight:bold;line-height:125%;letter-spacing:0px;word-spacing:0px;fill:#000000;fill-opacity:1;stroke:none;font-family:Times New Roman;-inkscape-font-specification:'Times New Roman, Bold Italic'"
       id="text3137-1-80"
       transform="matrix(2.4008508,0,0,2.4008508,-149.51593,-192.73632)">
      <path
         d="m 218.64743,320.54412 -1.56319,5.41704 c 0.5411,-0.79762 0.9339,-1.33672 1.1784,-1.61729 0.36474,-0.40482 0.67738,-0.67738 0.93791,-0.81767 0.26454,-0.14429 0.51705,-0.21644 0.75755,-0.21644 0.20441,0 0.37876,0.0782 0.52306,0.23448 0.1483,0.15231 0.22245,0.35673 0.22246,0.61325 -1e-5,0.21644 -0.0481,0.48699 -0.1443,0.81165 l -0.76355,2.56122 c -0.0682,0.22446 -0.10222,0.37477 -0.10221,0.45092 -1e-5,0.0361 0.014,0.0701 0.0421,0.10221 0.0281,0.0281 0.0601,0.0421 0.0962,0.0421 0.0481,0 0.0962,-0.02 0.1443,-0.0601 0.12825,-0.1002 0.26453,-0.26053 0.40883,-0.48098 0.0361,-0.0561 0.0942,-0.14028 0.17435,-0.25251 l 0.23448,0.13227 c -0.34471,0.56916 -0.67137,0.95995 -0.98,1.17239 -0.30863,0.21243 -0.60123,0.31864 -0.87778,0.31864 -0.24852,0 -0.44291,-0.0641 -0.58319,-0.19239 -0.14029,-0.12826 -0.21044,-0.28859 -0.21043,-0.48098 -10e-6,-0.17636 0.0481,-0.42687 0.14429,-0.75153 l 0.74552,-2.56122 c 0.0481,-0.17635 0.0721,-0.30462 0.0722,-0.38478 -1e-5,-0.0441 -0.018,-0.0822 -0.0541,-0.11424 -0.0321,-0.0361 -0.0702,-0.0541 -0.11423,-0.0541 -0.1443,10e-6 -0.34271,0.12025 -0.59522,0.36074 -0.52106,0.49301 -1.04212,1.26658 -1.56318,2.32073 l -0.53509,1.78564 -1.49104,0 1.97202,-6.79385 c 0.0802,-0.28858 0.12024,-0.495 0.12024,-0.61926 0,-0.1002 -0.0401,-0.17836 -0.12024,-0.23448 -0.10422,-0.0761 -0.26454,-0.10821 -0.48098,-0.0962 l 0.0421,-0.24049 2.00208,-0.35473 0.36074,0"
         id="path4304"
         inkscape:connector-curvature="0" />
    </g>
    <g
       style="font-size:12.31309414px;font-style:italic;font-weight:bold;line-height:125%;letter-spacing:0px;word-spacing:0px;fill:#000000;fill-opacity:1;stroke:none;font-family:Times New Roman;-inkscape-font-specification:'Times New Roman, Bold Italic'"
       id="text3137-1-3"
       transform="matrix(2.4008508,0,0,2.4008508,-149.51593,-192.73632)">
      <path
         d="m 238.46296,320.54412 -1.56318,5.41704 c 0.5411,-0.79762 0.9339,-1.33672 1.1784,-1.61729 0.36474,-0.40482 0.67738,-0.67738 0.93791,-0.81767 0.26454,-0.14429 0.51705,-0.21644 0.75754,-0.21644 0.20442,0 0.37877,0.0782 0.52307,0.23448 0.1483,0.15231 0.22245,0.35673 0.22245,0.61325 0,0.21644 -0.0481,0.48699 -0.14429,0.81165 l -0.76356,2.56122 c -0.0681,0.22446 -0.10221,0.37477 -0.1022,0.45092 -1e-5,0.0361 0.014,0.0701 0.0421,0.10221 0.0281,0.0281 0.0601,0.0421 0.0962,0.0421 0.0481,0 0.0962,-0.02 0.14429,-0.0601 0.12826,-0.1002 0.26454,-0.26053 0.40883,-0.48098 0.0361,-0.0561 0.0942,-0.14028 0.17436,-0.25251 l 0.23448,0.13227 c -0.34471,0.56916 -0.67138,0.95995 -0.98,1.17239 -0.30863,0.21243 -0.60123,0.31864 -0.87779,0.31864 -0.24851,0 -0.4429,-0.0641 -0.58319,-0.19239 -0.14029,-0.12826 -0.21043,-0.28859 -0.21043,-0.48098 0,-0.17636 0.0481,-0.42687 0.1443,-0.75153 l 0.74552,-2.56122 c 0.0481,-0.17635 0.0721,-0.30462 0.0722,-0.38478 -1e-5,-0.0441 -0.0181,-0.0822 -0.0541,-0.11424 -0.0321,-0.0361 -0.0701,-0.0541 -0.11423,-0.0541 -0.1443,10e-6 -0.3427,0.12025 -0.59521,0.36074 -0.52107,0.49301 -1.04213,1.26658 -1.56319,2.32073 l -0.53509,1.78564 -1.49104,0 1.97202,-6.79385 c 0.0802,-0.28858 0.12025,-0.495 0.12025,-0.61926 0,-0.1002 -0.0401,-0.17836 -0.12025,-0.23448 -0.10421,-0.0761 -0.26454,-0.10821 -0.48098,-0.0962 l 0.0421,-0.24049 2.00208,-0.35473 0.36073,0"
         id="path4301"
         inkscape:connector-curvature="0" />
    </g>
    <g
       id="g3218"
       transform="translate(-0.8500824,0.86364038)">
      <g
         style="font-size:40px;font-style:italic;font-weight:bold;line-height:125%;letter-spacing:0px;word-spacing:0px;fill:#000000;fill-opacity:1;stroke:none;font-family:Times New Roman;-inkscape-font-specification:Times New Roman"
         id="text3058">
        <path
           d="m 244.44458,777.19495 6.81641,-1.17188 c 1.23697,1.94012 2.10936,4.07554 2.61718,6.40625 1.27603,-1.88801 2.23957,-3.20962 2.89063,-3.96484 0.87238,-1.01561 1.58852,-1.67316 2.14844,-1.97266 0.5729,-0.31248 1.17836,-0.46873 1.8164,-0.46875 0.71613,2e-5 1.263,0.19533 1.64063,0.58594 0.3906,0.39064 0.58591,0.91798 0.58594,1.58203 -3e-5,0.62502 -0.19534,1.13934 -0.58594,1.54297 -0.37763,0.39064 -0.85289,0.58595 -1.42578,0.58594 -0.41669,1e-5 -0.89846,-0.0716 -1.44532,-0.21485 -0.53387,-0.15623 -0.90496,-0.23436 -1.11328,-0.23437 -0.54689,10e-6 -1.06772,0.19532 -1.5625,0.58594 -0.67709,0.53386 -1.51043,1.67318 -2.5,3.41796 1.10676,3.90626 1.99218,6.28907 2.65625,7.14844 0.39061,0.50782 0.78775,0.76172 1.19141,0.76172 0.33852,0 0.63149,-0.0846 0.87891,-0.25391 0.37758,-0.27343 0.95701,-0.95702 1.73828,-2.05078 l 0.70312,0.41016 c -1.14585,1.84896 -2.26564,3.15104 -3.35937,3.90625 -0.83335,0.58594 -1.65366,0.8789 -2.46094,0.87891 -0.83335,-10e-6 -1.52996,-0.1823 -2.08984,-0.54688 -0.54689,-0.3776 -1.03517,-0.98307 -1.46485,-1.81641 -0.4297,-0.84635 -0.93751,-2.194 -1.52344,-4.04296 -1.52344,1.9401 -2.72136,3.35937 -3.59375,4.25781 -0.85937,0.88541 -1.57552,1.46484 -2.14843,1.73828 -0.57292,0.27344 -1.1849,0.41015 -1.83594,0.41016 -0.67708,-10e-6 -1.21094,-0.19532 -1.60156,-0.58594 -0.40365,-0.39063 -0.60547,-0.89844 -0.60547,-1.52344 0,-0.66406 0.21484,-1.21093 0.64453,-1.64062 0.42969,-0.42969 0.97656,-0.64453 1.64062,-0.64454 0.35157,10e-6 0.7487,0.10417 1.19141,0.3125 0.65104,0.31251 1.11979,0.46876 1.40625,0.46875 0.3776,10e-6 0.71614,-0.0781 1.01563,-0.23437 0.39062,-0.19531 0.88541,-0.61849 1.48437,-1.26953 0.36458,-0.40364 1.03515,-1.26302 2.01172,-2.57813 -1.25001,-4.6354 -2.22657,-7.40884 -2.92969,-8.32031 -0.44271,-0.58592 -1.00261,-0.87889 -1.67969,-0.87891 -0.35156,2e-5 -0.78125,0.0521 -1.28906,0.15625 l 0.13672,-0.74218"
           id="path3267"
           inkscape:connector-curvature="0" />
      </g>
      <g
         style="font-size:25.60000038px;font-style:italic;font-weight:bold;line-height:125%;letter-spacing:0px;word-spacing:0px;fill:#000000;fill-opacity:1;stroke:none;font-family:Times New Roman;-inkscape-font-specification:Times New Roman"
         id="text3058-6">
        <path
           d="m 270.0463,784.34459 0,13.8625 c -10e-6,1.04167 0.0458,1.70834 0.1375,2 0.0917,0.28334 0.28333,0.51667 0.575,0.7 0.29166,0.18334 0.75832,0.275 1.4,0.275 l 0.3875,0 0,0.4625 -8.925,0 0,-0.4625 0.45,0 c 0.725,0 1.24166,-0.0833 1.55,-0.25 0.30833,-0.16666 0.51666,-0.39583 0.625,-0.6875 0.10833,-0.29166 0.1625,-0.97083 0.1625,-2.0375 l 0,-8.7875 c 0,-0.78332 -0.0375,-1.27082 -0.1125,-1.4625 -0.075,-0.19998 -0.21667,-0.36665 -0.425,-0.5 -0.2,-0.14165 -0.43334,-0.21248 -0.7,-0.2125 -0.425,2e-5 -0.94167,0.13335 -1.55,0.4 l -0.225,-0.45 6.2375,-2.85 0.4125,0"
           style="font-style:normal;-inkscape-font-specification:'Times New Roman, Bold'"
           id="path3270"
           inkscape:connector-curvature="0" />
      </g>
    </g>
    <g
       id="g3212"
       transform="translate(-0.08351135,-2.8300242)">
      <g
         style="font-size:40px;font-style:italic;font-weight:bold;line-height:125%;letter-spacing:0px;word-spacing:0px;fill:#000000;fill-opacity:1;stroke:none;font-family:Times New Roman;-inkscape-font-specification:Times New Roman"
         id="text3058-7">
        <path
           d="m 292.03293,780.88861 6.8164,-1.17187 c 1.23697,1.94012 2.10937,4.07553 2.61719,6.40625 1.27603,-1.88801 2.23957,-3.20962 2.89063,-3.96485 0.87238,-1.01561 1.58852,-1.67316 2.14843,-1.97265 0.5729,-0.31249 1.17837,-0.46874 1.81641,-0.46875 0.71613,1e-5 1.263,0.19533 1.64063,0.58593 0.3906,0.39065 0.58591,0.91799 0.58593,1.58203 -2e-5,0.62502 -0.19533,1.13934 -0.58593,1.54297 -0.37763,0.39064 -0.85289,0.58595 -1.42579,0.58594 -0.41668,10e-6 -0.89845,-0.0716 -1.44531,-0.21484 -0.53387,-0.15624 -0.90496,-0.23436 -1.11328,-0.23438 -0.54689,2e-5 -1.06772,0.19533 -1.5625,0.58594 -0.6771,0.53387 -1.51043,1.67319 -2.5,3.41797 1.10676,3.90625 1.99217,6.28906 2.65625,7.14844 0.39061,0.50781 0.78775,0.76172 1.19141,0.76171 0.33852,1e-5 0.63149,-0.0846 0.8789,-0.2539 0.37759,-0.27344 0.95702,-0.95703 1.73828,-2.05078 l 0.70313,0.41015 c -1.14585,1.84896 -2.26564,3.15105 -3.35938,3.90625 -0.83334,0.58594 -1.65365,0.87891 -2.46093,0.87891 -0.83335,0 -1.52996,-0.18229 -2.08985,-0.54688 -0.54688,-0.3776 -1.03516,-0.98307 -1.46484,-1.8164 -0.4297,-0.84635 -0.93751,-2.19401 -1.52344,-4.04297 -1.52344,1.94011 -2.72136,3.35938 -3.59375,4.25781 -0.85938,0.88542 -1.57552,1.46485 -2.14844,1.73828 -0.57291,0.27344 -1.18489,0.41016 -1.83593,0.41016 -0.67709,0 -1.21094,-0.19531 -1.60157,-0.58594 -0.40364,-0.39062 -0.60546,-0.89843 -0.60546,-1.52344 0,-0.66406 0.21484,-1.21093 0.64453,-1.64062 0.42969,-0.42968 0.97656,-0.64453 1.64062,-0.64453 0.35156,0 0.7487,0.10417 1.19141,0.3125 0.65104,0.3125 1.11979,0.46875 1.40625,0.46875 0.3776,0 0.71614,-0.0781 1.01562,-0.23438 0.39062,-0.19531 0.88542,-0.61848 1.48438,-1.26953 0.36458,-0.40364 1.03515,-1.26301 2.01172,-2.57812 -1.25001,-4.63541 -2.22657,-7.40884 -2.92969,-8.32032 -0.44271,-0.58592 -1.00261,-0.87889 -1.67969,-0.8789 -0.35156,10e-6 -0.78125,0.0521 -1.28906,0.15625 l 0.13672,-0.74219"
           id="path3261"
           inkscape:connector-curvature="0" />
      </g>
      <g
         style="font-size:25.60000038px;font-style:italic;font-weight:bold;line-height:125%;letter-spacing:0px;word-spacing:0px;fill:#000000;fill-opacity:1;stroke:none;font-family:Times New Roman;-inkscape-font-specification:Times New Roman"
         id="text3058-6-9">
        <path
           d="m 319.89712,805.33826 -9.975,0 0,-0.275 c 3.05833,-3.64167 4.91249,-6.09166 5.5625,-7.35 0.65833,-1.25833 0.98749,-2.48749 0.9875,-3.6875 -1e-5,-0.87499 -0.27084,-1.59999 -0.8125,-2.175 -0.54167,-0.58332 -1.20417,-0.87499 -1.9875,-0.875 -1.28334,10e-6 -2.27917,0.64168 -2.9875,1.925 l -0.4625,-0.1625 c 0.45,-1.59999 1.13333,-2.78332 2.05,-3.55 0.91666,-0.76665 1.97499,-1.14999 3.175,-1.15 0.85833,10e-6 1.64166,0.20001 2.35,0.6 0.70832,0.40001 1.26249,0.95001 1.6625,1.65 0.39999,0.69168 0.59999,1.34168 0.6,1.95 -10e-6,1.10834 -0.30834,2.23334 -0.925,3.375 -0.84168,1.54167 -2.67917,3.69167 -5.5125,6.45 l 3.6625,0 c 0.89999,0 1.48332,-0.0375 1.75,-0.1125 0.27499,-0.075 0.49999,-0.2 0.675,-0.375 0.17499,-0.18333 0.40416,-0.5625 0.6875,-1.1375 l 0.45,0 -0.95,4.9"
           style="font-style:normal;-inkscape-font-specification:'Times New Roman, Bold'"
           id="path3264"
           inkscape:connector-curvature="0" />
      </g>
    </g>
    <g
       id="g3206"
       transform="translate(-0.09089661,-2.2107371)">
      <g
         style="font-size:40px;font-style:italic;font-weight:bold;line-height:125%;letter-spacing:0px;word-spacing:0px;fill:#000000;fill-opacity:1;stroke:none;font-family:Times New Roman;-inkscape-font-specification:Times New Roman"
         id="text3058-9">
        <path
           d="m 340.86395,780.08807 6.81641,-1.17187 c 1.23697,1.94012 2.10936,4.07553 2.61719,6.40625 1.27603,-1.88801 2.23957,-3.20962 2.89062,-3.96485 0.87238,-1.0156 1.58853,-1.67315 2.14844,-1.97265 0.5729,-0.31248 1.17837,-0.46873 1.81641,-0.46875 0.71612,2e-5 1.263,0.19533 1.64062,0.58594 0.3906,0.39064 0.58592,0.91798 0.58594,1.58203 -2e-5,0.62501 -0.19534,1.13934 -0.58594,1.54297 -0.37762,0.39064 -0.85288,0.58595 -1.42578,0.58593 -0.41669,2e-5 -0.89846,-0.0716 -1.44531,-0.21484 -0.53387,-0.15624 -0.90497,-0.23436 -1.11328,-0.23438 -0.5469,2e-5 -1.06773,0.19533 -1.5625,0.58594 -0.6771,0.53387 -1.51043,1.67319 -2.5,3.41797 1.10675,3.90626 1.99217,6.28907 2.65625,7.14844 0.39061,0.50781 0.78774,0.76172 1.1914,0.76172 0.33853,0 0.6315,-0.0846 0.87891,-0.25391 0.37758,-0.27343 0.95701,-0.95703 1.73828,-2.05078 l 0.70312,0.41016 c -1.14585,1.84896 -2.26564,3.15104 -3.35937,3.90625 -0.83335,0.58593 -1.65366,0.8789 -2.46094,0.8789 -0.83334,0 -1.52996,-0.18229 -2.08984,-0.54687 -0.54689,-0.37761 -1.03517,-0.98307 -1.46485,-1.81641 -0.42969,-0.84635 -0.9375,-2.19401 -1.52343,-4.04297 -1.52345,1.94011 -2.72136,3.35938 -3.59375,4.25781 -0.85938,0.88542 -1.57553,1.46485 -2.14844,1.73829 -0.57292,0.27343 -1.1849,0.41015 -1.83594,0.41015 -0.67708,0 -1.21094,-0.19531 -1.60156,-0.58594 -0.40365,-0.39062 -0.60547,-0.89843 -0.60547,-1.52343 0,-0.66406 0.21485,-1.21094 0.64453,-1.64063 0.42969,-0.42968 0.97656,-0.64452 1.64063,-0.64453 0.35156,1e-5 0.74869,0.10417 1.1914,0.3125 0.65104,0.3125 1.11979,0.46875 1.40625,0.46875 0.3776,0 0.71614,-0.0781 1.01563,-0.23437 0.39062,-0.19531 0.88541,-0.61849 1.48437,-1.26954 0.36458,-0.40364 1.03515,-1.26301 2.01172,-2.57812 -1.25,-4.6354 -2.22657,-7.40884 -2.92969,-8.32031 -0.44271,-0.58592 -1.0026,-0.87889 -1.67968,-0.87891 -0.35157,2e-5 -0.78126,0.0521 -1.28907,0.15625 l 0.13672,-0.74219"
           id="path3255"
           inkscape:connector-curvature="0" />
      </g>
      <g
         style="font-size:25.60000038px;font-style:italic;font-weight:bold;line-height:125%;letter-spacing:0px;word-spacing:0px;fill:#000000;fill-opacity:1;stroke:none;font-family:Times New Roman;-inkscape-font-specification:Times New Roman"
         id="text3058-6-7">
        <path
           d="m 361.91567,796.03772 0,-0.4375 c 0.95,-0.27499 1.60833,-0.52916 1.975,-0.7625 0.36666,-0.24166 0.68333,-0.60416 0.95,-1.0875 0.26666,-0.49166 0.4,-0.98749 0.4,-1.4875 0,-0.69165 -0.25417,-1.28332 -0.7625,-1.775 -0.5,-0.49999 -1.125,-0.74999 -1.875,-0.75 -1.16667,1e-5 -2.15833,0.61668 -2.975,1.85 l -0.4625,-0.1625 c 0.6,-1.39165 1.36667,-2.43748 2.3,-3.1375 0.94167,-0.69998 1.9875,-1.04998 3.1375,-1.05 1.175,2e-5 2.14166,0.35835 2.9,1.075 0.76666,0.71668 1.14999,1.55418 1.15,2.5125 -10e-6,0.62501 -0.17917,1.22918 -0.5375,1.8125 -0.35001,0.57501 -0.90417,1.08334 -1.6625,1.525 0.97499,0.47501 1.71666,1.06251 2.225,1.7625 0.51666,0.69167 0.77499,1.56251 0.775,2.6125 -10e-6,1.76667 -0.64167,3.27084 -1.925,4.5125 -1.275,1.23333 -2.9875,1.85 -5.1375,1.85 -1.43333,0 -2.47916,-0.2375 -3.1375,-0.7125 -0.475,-0.33333 -0.7125,-0.7625 -0.7125,-1.2875 0,-0.38333 0.1375,-0.70833 0.4125,-0.975 0.275,-0.275 0.59167,-0.4125 0.95,-0.4125 0.275,0 0.53333,0.0583 0.775,0.175 0.13333,0.0667 0.60417,0.43334 1.4125,1.1 0.81667,0.65833 1.57917,0.9875 2.2875,0.9875 0.61666,0 1.14583,-0.24167 1.5875,-0.725 0.44166,-0.49166 0.6625,-1.1125 0.6625,-1.8625 0,-1.14166 -0.4,-2.19166 -1.2,-3.15 -0.8,-0.96666 -1.97083,-1.63333 -3.5125,-2"
           style="font-style:normal;-inkscape-font-specification:'Times New Roman, Bold'"
           id="path3258"
           inkscape:connector-curvature="0" />
      </g>
    </g>
    <g
       id="g3200"
       transform="translate(1.1714783,0.37194116)">
      <g
         style="font-size:40px;font-style:italic;font-weight:bold;line-height:125%;letter-spacing:0px;word-spacing:0px;fill:#000000;fill-opacity:1;stroke:none;font-family:Times New Roman;-inkscape-font-specification:Times New Roman"
         id="text3058-2">
        <path
           d="m 388.09396,777.68665 6.81641,-1.17188 c 1.23697,1.94012 2.10936,4.07554 2.61719,6.40625 1.27603,-1.88801 2.23957,-3.20962 2.89062,-3.96484 0.87238,-1.01561 1.58853,-1.67316 2.14844,-1.97266 0.5729,-0.31248 1.17837,-0.46873 1.81641,-0.46875 0.71612,2e-5 1.263,0.19533 1.64062,0.58594 0.39061,0.39064 0.58592,0.91798 0.58594,1.58203 -2e-5,0.62501 -0.19533,1.13934 -0.58594,1.54297 -0.37762,0.39064 -0.85288,0.58595 -1.42578,0.58594 -0.41668,10e-6 -0.89846,-0.0716 -1.44531,-0.21485 -0.53387,-0.15623 -0.90497,-0.23436 -1.11328,-0.23437 -0.54689,10e-6 -1.06773,0.19532 -1.5625,0.58593 -0.6771,0.53387 -1.51043,1.67319 -2.5,3.41797 1.10675,3.90626 1.99217,6.28907 2.65625,7.14844 0.39061,0.50782 0.78774,0.76172 1.1914,0.76172 0.33853,0 0.6315,-0.0846 0.87891,-0.25391 0.37759,-0.27343 0.95701,-0.95702 1.73828,-2.05078 l 0.70312,0.41016 c -1.14585,1.84896 -2.26564,3.15104 -3.35937,3.90625 -0.83335,0.58594 -1.65366,0.8789 -2.46094,0.8789 -0.83334,0 -1.52996,-0.18229 -2.08984,-0.54687 -0.54689,-0.3776 -1.03517,-0.98307 -1.46485,-1.81641 -0.42969,-0.84635 -0.9375,-2.194 -1.52343,-4.04297 -1.52345,1.94011 -2.72136,3.35938 -3.59375,4.25782 -0.85938,0.88541 -1.57553,1.46484 -2.14844,1.73828 -0.57292,0.27344 -1.1849,0.41015 -1.83594,0.41015 -0.67708,0 -1.21093,-0.19531 -1.60156,-0.58593 -0.40364,-0.39063 -0.60547,-0.89844 -0.60547,-1.52344 0,-0.66406 0.21485,-1.21094 0.64453,-1.64063 0.42969,-0.42968 0.97657,-0.64452 1.64063,-0.64453 0.35156,1e-5 0.74869,0.10417 1.1914,0.3125 0.65104,0.31251 1.11979,0.46876 1.40625,0.46875 0.3776,1e-5 0.71615,-0.0781 1.01563,-0.23437 0.39062,-0.19531 0.88541,-0.61849 1.48437,-1.26953 0.36458,-0.40364 1.03515,-1.26302 2.01172,-2.57813 -1.25,-4.6354 -2.22657,-7.40884 -2.92969,-8.32031 -0.44271,-0.58592 -1.0026,-0.87889 -1.67968,-0.87891 -0.35157,2e-5 -0.78125,0.0521 -1.28907,0.15625 l 0.13672,-0.74218"
           id="path3249"
           inkscape:connector-curvature="0" />
      </g>
      <g
         style="font-size:25.60000038px;font-style:italic;font-weight:bold;line-height:125%;letter-spacing:0px;word-spacing:0px;fill:#000000;fill-opacity:1;stroke:none;font-family:Times New Roman;-inkscape-font-specification:Times New Roman"
         id="text3058-6-3">
        <path
           d="m 405.99568,795.74879 8.05,-10.9125 1.525,0 0,10.9125 1.55,0 0,2.5875 -1.55,0 0,3.8 -3.4375,0 0,-3.8 -6.1375,0 0,-2.5875 m 1.2125,0 4.925,0 0,-6.6875 -4.925,6.6875"
           style="font-style:normal;-inkscape-font-specification:'Times New Roman, Bold'"
           id="path3252"
           inkscape:connector-curvature="0" />
      </g>
    </g>
    <g
       id="g3194"
       transform="translate(-0.58691406,-3.8055613)">
      <g
         style="font-size:40px;font-style:italic;font-weight:bold;line-height:125%;letter-spacing:0px;word-spacing:0px;fill:#000000;fill-opacity:1;stroke:none;font-family:Times New Roman;-inkscape-font-specification:Times New Roman"
         id="text3058-0">
        <path
           d="m 438.52603,781.68915 6.81641,-1.17188 c 1.23697,1.94012 2.10936,4.07554 2.61719,6.40625 1.27602,-1.888 2.23957,-3.20962 2.89062,-3.96484 0.87238,-1.01561 1.58853,-1.67316 2.14844,-1.97266 0.5729,-0.31248 1.17837,-0.46873 1.8164,-0.46875 0.71613,2e-5 1.26301,0.19533 1.64063,0.58594 0.3906,0.39064 0.58592,0.91799 0.58594,1.58203 -2e-5,0.62502 -0.19534,1.13934 -0.58594,1.54297 -0.37762,0.39064 -0.85288,0.58595 -1.42578,0.58594 -0.41669,10e-6 -0.89846,-0.0716 -1.44531,-0.21485 -0.53388,-0.15623 -0.90497,-0.23436 -1.11329,-0.23437 -0.54689,1e-5 -1.06772,0.19533 -1.5625,0.58594 -0.67709,0.53386 -1.51043,1.67319 -2.5,3.41797 1.10676,3.90625 1.99218,6.28906 2.65625,7.14843 0.39061,0.50782 0.78775,0.76172 1.19141,0.76172 0.33853,0 0.63149,-0.0846 0.87891,-0.2539 0.37758,-0.27344 0.95701,-0.95703 1.73828,-2.05079 l 0.70312,0.41016 c -1.14585,1.84896 -2.26564,3.15104 -3.35937,3.90625 -0.83335,0.58594 -1.65366,0.87891 -2.46094,0.87891 -0.83335,0 -1.52996,-0.1823 -2.08984,-0.54688 -0.54689,-0.3776 -1.03517,-0.98307 -1.46485,-1.8164 -0.42969,-0.84636 -0.93751,-2.19401 -1.52343,-4.04297 -1.52345,1.9401 -2.72136,3.35937 -3.59375,4.25781 -0.85938,0.88542 -1.57553,1.46484 -2.14844,1.73828 -0.57292,0.27344 -1.1849,0.41016 -1.83594,0.41016 -0.67708,0 -1.21094,-0.19532 -1.60156,-0.58594 -0.40365,-0.39063 -0.60547,-0.89844 -0.60547,-1.52344 0,-0.66406 0.21484,-1.21093 0.64453,-1.64062 0.42969,-0.42969 0.97656,-0.64453 1.64063,-0.64453 0.35156,0 0.74869,0.10417 1.1914,0.3125 0.65104,0.3125 1.11979,0.46875 1.40625,0.46875 0.3776,0 0.71614,-0.0781 1.01563,-0.23438 0.39062,-0.19531 0.88541,-0.61849 1.48437,-1.26953 0.36458,-0.40364 1.03515,-1.26302 2.01172,-2.57813 -1.25001,-4.6354 -2.22657,-7.40884 -2.92969,-8.32031 -0.44271,-0.58592 -1.00261,-0.87889 -1.67968,-0.8789 -0.35157,10e-6 -0.78126,0.0521 -1.28907,0.15625 l 0.13672,-0.74219"
           id="path3243"
           inkscape:connector-curvature="0" />
      </g>
      <g
         style="font-size:25.60000038px;font-style:italic;font-weight:bold;line-height:125%;letter-spacing:0px;word-spacing:0px;fill:#000000;fill-opacity:1;stroke:none;font-family:Times New Roman;-inkscape-font-specification:Times New Roman"
         id="text3058-6-0">
        <path
           d="m 459.69022,789.18879 7.9375,0 -1.2625,3.225 -6.675,0 -0.6375,1.6875 c 2.875,0.10835 5.08749,0.82501 6.6375,2.15 1.27499,1.09168 1.91249,2.45001 1.9125,4.075 -10e-6,1.04168 -0.29584,2.06251 -0.8875,3.0625 -0.59167,0.99167 -1.42501,1.75834 -2.5,2.3 -1.07501,0.53334 -2.25417,0.8 -3.5375,0.8 -1.38333,0 -2.44583,-0.25833 -3.1875,-0.775 -0.51667,-0.36666 -0.775,-0.78333 -0.775,-1.25 0,-0.35833 0.13333,-0.67499 0.4,-0.95 0.275,-0.27499 0.59167,-0.41249 0.95,-0.4125 0.325,1e-5 0.65417,0.0667 0.9875,0.2 0.33333,0.13334 0.90416,0.48334 1.7125,1.05 0.50833,0.35001 0.94583,0.59167 1.3125,0.725 0.25833,0.1 0.55,0.15 0.875,0.15 0.68333,0 1.26249,-0.24999 1.7375,-0.75 0.48333,-0.49999 0.72499,-1.09999 0.725,-1.8 -10e-6,-1.46666 -0.73334,-2.65832 -2.2,-3.575 -1.46667,-0.91665 -3.31667,-1.37499 -5.55,-1.375 -0.225,1e-5 -0.5625,0.004 -1.0125,0.0125 l 3.0375,-8.55"
           style="font-style:normal;-inkscape-font-specification:'Times New Roman, Bold'"
           id="path3246"
           inkscape:connector-curvature="0" />
      </g>
    </g>
    <g
       id="g3188"
       transform="translate(-2.4015262,-3.0050242)">
      <g
         style="font-size:40px;font-style:italic;font-weight:bold;line-height:125%;letter-spacing:0px;word-spacing:0px;fill:#000000;fill-opacity:1;stroke:none;font-family:Times New Roman;-inkscape-font-specification:Times New Roman"
         id="text3058-96">
        <path
           d="m 488.95804,780.88861 6.8164,-1.17187 c 1.23697,1.94012 2.10937,4.07553 2.61719,6.40625 1.27603,-1.88801 2.23957,-3.20962 2.89063,-3.96485 0.87238,-1.01561 1.58852,-1.67316 2.14843,-1.97265 0.5729,-0.31249 1.17837,-0.46874 1.81641,-0.46875 0.71613,1e-5 1.263,0.19533 1.64063,0.58593 0.3906,0.39065 0.58591,0.91799 0.58593,1.58203 -2e-5,0.62502 -0.19533,1.13934 -0.58593,1.54297 -0.37763,0.39064 -0.85289,0.58595 -1.42579,0.58594 -0.41668,10e-6 -0.89845,-0.0716 -1.44531,-0.21484 -0.53387,-0.15624 -0.90496,-0.23436 -1.11328,-0.23438 -0.54689,2e-5 -1.06772,0.19533 -1.5625,0.58594 -0.6771,0.53387 -1.51043,1.67319 -2.5,3.41797 1.10676,3.90625 1.99217,6.28906 2.65625,7.14844 0.39061,0.50781 0.78775,0.76172 1.19141,0.76171 0.33852,1e-5 0.63149,-0.0846 0.8789,-0.2539 0.37759,-0.27344 0.95702,-0.95703 1.73828,-2.05078 l 0.70313,0.41015 c -1.14585,1.84896 -2.26564,3.15105 -3.35938,3.90625 -0.83334,0.58594 -1.65366,0.87891 -2.46093,0.87891 -0.83335,0 -1.52996,-0.18229 -2.08985,-0.54688 -0.54688,-0.3776 -1.03516,-0.98307 -1.46484,-1.8164 -0.4297,-0.84635 -0.93751,-2.19401 -1.52344,-4.04297 -1.52344,1.94011 -2.72136,3.35938 -3.59375,4.25781 -0.85938,0.88542 -1.57552,1.46485 -2.14844,1.73828 -0.57291,0.27344 -1.18489,0.41016 -1.83593,0.41016 -0.67709,0 -1.21094,-0.19531 -1.60157,-0.58594 -0.40364,-0.39062 -0.60546,-0.89843 -0.60546,-1.52344 0,-0.66406 0.21484,-1.21093 0.64453,-1.64062 0.42969,-0.42968 0.97656,-0.64453 1.64062,-0.64453 0.35156,0 0.7487,0.10417 1.19141,0.3125 0.65104,0.3125 1.11979,0.46875 1.40625,0.46875 0.3776,0 0.71614,-0.0781 1.01562,-0.23438 0.39062,-0.19531 0.88542,-0.61848 1.48438,-1.26953 0.36458,-0.40364 1.03515,-1.26301 2.01172,-2.57812 -1.25001,-4.63541 -2.22657,-7.40884 -2.92969,-8.32032 -0.44271,-0.58592 -1.00261,-0.87889 -1.67969,-0.8789 -0.35156,10e-6 -0.78125,0.0521 -1.28906,0.15625 l 0.13672,-0.74219"
           id="path3237"
           inkscape:connector-curvature="0" />
      </g>
      <g
         style="font-size:25.60000038px;font-style:italic;font-weight:bold;line-height:125%;letter-spacing:0px;word-spacing:0px;fill:#000000;fill-opacity:1;stroke:none;font-family:Times New Roman;-inkscape-font-specification:Times New Roman"
         id="text3058-6-2">
        <path
           d="m 518.24726,788.03826 0,0.35 c -1.50834,0.38335 -2.72084,0.87918 -3.6375,1.4875 -0.90834,0.60001 -1.62917,1.33334 -2.1625,2.2 -0.52501,0.85834 -0.93334,1.92501 -1.225,3.2 0.36666,-0.24999 0.67083,-0.41249 0.9125,-0.4875 0.54166,-0.16666 1.08749,-0.24999 1.6375,-0.25 1.26666,10e-6 2.32082,0.46251 3.1625,1.3875 0.84999,0.91667 1.27499,2.17084 1.275,3.7625 -10e-6,1.11667 -0.22918,2.14167 -0.6875,3.075 -0.45834,0.93333 -1.10834,1.65416 -1.95,2.1625 -0.84168,0.50833 -1.74167,0.7625 -2.7,0.7625 -1.04167,0 -2.00417,-0.28334 -2.8875,-0.85 -0.88334,-0.575 -1.575,-1.4125 -2.075,-2.5125 -0.49167,-1.1 -0.7375,-2.29583 -0.7375,-3.5875 0,-1.89999 0.45416,-3.66666 1.3625,-5.3 0.91666,-1.64166 2.2125,-2.94582 3.8875,-3.9125 1.68333,-0.97499 3.62499,-1.47082 5.825,-1.4875 m -7.1875,8.25 c -0.0667,1.15 -0.10001,1.99167 -0.1,2.525 -1e-5,1.15 0.10833,2.2625 0.325,3.3375 0.22499,1.075 0.52916,1.82916 0.9125,2.2625 0.27499,0.30833 0.59999,0.4625 0.975,0.4625 0.38333,0 0.72499,-0.22084 1.025,-0.6625 0.29999,-0.45 0.44999,-1.35833 0.45,-2.725 -10e-6,-2.3 -0.27918,-3.8875 -0.8375,-4.7625 -0.35834,-0.56666 -0.84167,-0.84999 -1.45,-0.85 -0.33334,10e-6 -0.76667,0.13751 -1.3,0.4125"
           style="font-style:normal;-inkscape-font-specification:'Times New Roman, Bold'"
           id="path3240"
           inkscape:connector-curvature="0" />
      </g>
    </g>
    <g
       id="g3224"
       transform="translate(4.0025436,4.1995657)">
      <g
         style="font-size:40px;font-style:italic;font-weight:bold;line-height:125%;letter-spacing:0px;word-spacing:0px;fill:#000000;fill-opacity:1;stroke:none;font-family:Times New Roman;-inkscape-font-specification:Times New Roman"
         id="text3058-73">
        <path
           d="m 190.36833,773.68402 6.81641,-1.17187 c 1.23697,1.94012 2.10936,4.07553 2.61719,6.40625 1.27602,-1.88801 2.23957,-3.20962 2.89062,-3.96485 0.87238,-1.01561 1.58853,-1.67316 2.14844,-1.97265 0.5729,-0.31249 1.17837,-0.46874 1.8164,-0.46875 0.71613,10e-6 1.26301,0.19533 1.64063,0.58593 0.3906,0.39065 0.58592,0.91799 0.58594,1.58203 -2e-5,0.62502 -0.19534,1.13934 -0.58594,1.54297 -0.37762,0.39064 -0.85288,0.58595 -1.42578,0.58594 -0.41669,10e-6 -0.89846,-0.0716 -1.44531,-0.21484 -0.53387,-0.15624 -0.90497,-0.23436 -1.11329,-0.23438 -0.54689,2e-5 -1.06772,0.19533 -1.5625,0.58594 -0.67709,0.53387 -1.51042,1.67319 -2.5,3.41797 1.10676,3.90625 1.99218,6.28906 2.65625,7.14844 0.39061,0.50781 0.78775,0.76172 1.19141,0.76171 0.33853,10e-6 0.63149,-0.0846 0.87891,-0.2539 0.37758,-0.27344 0.95701,-0.95703 1.73828,-2.05078 l 0.70312,0.41015 c -1.14585,1.84896 -2.26564,3.15105 -3.35937,3.90625 -0.83335,0.58594 -1.65366,0.87891 -2.46094,0.87891 -0.83334,0 -1.52996,-0.18229 -2.08984,-0.54688 -0.54689,-0.3776 -1.03517,-0.98307 -1.46485,-1.8164 -0.42969,-0.84635 -0.93751,-2.19401 -1.52343,-4.04297 -1.52345,1.94011 -2.72136,3.35938 -3.59375,4.25781 -0.85938,0.88542 -1.57553,1.46485 -2.14844,1.73828 -0.57292,0.27344 -1.1849,0.41016 -1.83594,0.41016 -0.67708,0 -1.21094,-0.19531 -1.60156,-0.58594 -0.40365,-0.39062 -0.60547,-0.89843 -0.60547,-1.52344 0,-0.66406 0.21484,-1.21093 0.64453,-1.64062 0.42969,-0.42968 0.97656,-0.64453 1.64063,-0.64453 0.35156,0 0.74869,0.10417 1.1914,0.3125 0.65104,0.3125 1.11979,0.46875 1.40625,0.46875 0.3776,0 0.71614,-0.0781 1.01563,-0.23438 0.39062,-0.19531 0.88541,-0.61848 1.48437,-1.26953 0.36458,-0.40364 1.03515,-1.26301 2.01172,-2.57812 -1.25001,-4.63541 -2.22657,-7.40884 -2.92969,-8.32032 -0.44271,-0.58592 -1.0026,-0.87889 -1.67968,-0.8789 -0.35157,10e-6 -0.78126,0.0521 -1.28907,0.15625 l 0.13672,-0.74219"
           id="path3231"
           inkscape:connector-curvature="0" />
      </g>
      <g
         style="font-size:25.60000038px;font-style:italic;font-weight:bold;line-height:125%;letter-spacing:0px;word-spacing:0px;fill:#000000;fill-opacity:1;stroke:none;font-family:Times New Roman;-inkscape-font-specification:Times New Roman"
         id="text3058-6-1">
        <path
           d="m 219.49499,789.65867 c -1e-5,1.69167 -0.23751,3.27084 -0.7125,4.7375 -0.28334,0.9 -0.66667,1.6375 -1.15,2.2125 -0.47501,0.575 -1.01667,1.03333 -1.625,1.375 -0.60834,0.33333 -1.27084,0.5 -1.9875,0.5 -0.81667,0 -1.55417,-0.20834 -2.2125,-0.625 -0.65833,-0.41667 -1.24167,-1.0125 -1.75,-1.7875 -0.36667,-0.56667 -0.6875,-1.32083 -0.9625,-2.2625 -0.35833,-1.275 -0.5375,-2.59166 -0.5375,-3.95 0,-1.84166 0.25833,-3.53332 0.775,-5.075 0.425,-1.27499 1.07083,-2.24999 1.9375,-2.925 0.86666,-0.68332 1.78333,-1.02499 2.75,-1.025 0.98333,10e-6 1.89999,0.33751 2.75,1.0125 0.85833,0.66668 1.48749,1.56668 1.8875,2.7 0.55832,1.55834 0.83749,3.26251 0.8375,5.1125 m -3.85,-0.025 c -1e-5,-2.96666 -0.0167,-4.69582 -0.05,-5.1875 -0.0833,-1.15832 -0.28334,-1.94165 -0.6,-2.35 -0.20834,-0.26665 -0.54584,-0.39999 -1.0125,-0.4 -0.35834,10e-6 -0.64167,0.10001 -0.85,0.3 -0.30834,0.29168 -0.51667,0.80835 -0.625,1.55 -0.10834,0.73334 -0.1625,3.30417 -0.1625,7.7125 0,2.4 0.0833,4.00833 0.25,4.825 0.125,0.59167 0.30416,0.9875 0.5375,1.1875 0.23333,0.2 0.54166,0.3 0.925,0.3 0.41666,0 0.72916,-0.13334 0.9375,-0.4 0.34999,-0.46667 0.54999,-1.1875 0.6,-2.1625 l 0.05,-5.375"
           style="font-style:normal;-inkscape-font-specification:'Times New Roman, Bold'"
           id="path3234"
           inkscape:connector-curvature="0" />
      </g>
    </g>
  </g>
</svg>
